<?xml version="1.0" encoding="UTF-8"?>
<svg version="1.1" viewBox="0 0 1024 1024" width="1024" height="1024" xmlns="http://www.w3.org/2000/svg">
<path transform="translate(680,301)" d="m0 0h15l9 3 3 4v36l-1 1-2 20-1 1-3 14-4 13-8 14-3 5h-2v7l8 9v2h2l14 19 9 14 7 15 2 4h17l14-1h22l11 3 5 6v124l-4 9-5 4-3 2-8 1h-49l-4 12-10 19-1 3h-2l-4 10-4 4-8 11-9 10-4 6-1 123-1 3h-2v2l-10 3-4 1h-75l-12-3-5-5-2-4v-52l-11 2-1 1-13 2-10 2-12 1-3 1h-31l-3-1-19-2-8-2-7-2-6-1v54l-4 5-12 4h-84l-8-4-3-5-1-4v-21l-1-68 1-12v-18l-12-14-6-8v-2h-2l-1-4h-2l-6-9v-3h-2l-1-4h-2l-6-12v-3h-2l-5-13-4-10-4-16-1-1-2-21-2-10-3-2-15-1-16-7v-2l-4-2-7-6v-2l-3-1v-2l-3-1v-2h-2l-9-14-3-6v-3h-2l-3-10v-33l5-9 5-3h11l6 4 2 3v20l-1 7 2 14 4 8 4 5v2h2l5 5 3 2v2l9 3h13l2-6 2-21 2-7 4-15 5-14 5-12 5-9 10-16 7-10h2l1-4 4-4 7-8 14-14h2v-2l10-8 8-6 15-10 7-5 6-3 15-8 19-8 18-5 11-3 30-5h41l13 2 24 4 14 4 9 1 11-11 8-7 5-4 4-3h2v-2l11-6 14-7 8-1v-2l9-3 14-4z" fill="#79C290"/>
<path transform="translate(680,301)" d="m0 0h15l9 3 3 4v36l-1 1-2 20-1 1-3 14-4 13-8 14-3 5h-2v7l8 9v2h2l14 19 9 14 7 15 2 4h17l14-1h22l11 3 5 6v124l-4 9-5 4-3 2-8 1h-49l-4 12-10 19-1 3h-2l-4 10-4 4-8 11-9 10-4 6-1 123-1 3h-2v2l-10 3-4 1h-75l-12-3-5-5-2-4v-52l-11 2-1 1-13 2-10 2-12 1-3 1h-31l-3-1-19-2-8-2-7-2-6-1v54l-4 5-12 4h-84l-8-4-3-5-1-4v-21l-1-68 1-12v-18l-12-14-6-8v-2h-2l-1-4h-2l-6-9v-3h-2l-1-4h-2l-6-12v-3h-2l-5-13-4-10-4-16-1-1-2-21-2-10-3-2-15-1-16-7v-2l-4-2-7-6v-2l-3-1v-2l-3-1v-2h-2l-9-14-3-6v-3h-2l-3-10v-33l5-9 5-3h11l6 4 2 3v20l-1 7 2 14 4 8 4 5v2h2l5 5 3 2v2l9 3h13l2-6 2-21 2-7 4-15 5-14 5-12 5-9 10-16 7-10h2l1-4 4-4 7-8 14-14h2v-2l10-8 2 1-11 10-8 7-9 9-9 11-11 15-11 19-8 18-4 11-6 25-4 26v19l2 23 4 23 6 18 5 12 4 8v2h6l2 1v2l5 1 4 4 10 3 8 4 6 9h-4l-5 1-2-2v-2l-1 3-1 2 2 1-2 2-1 2-5-1-1-3h-2l-2-5-5-5-2-3 3 5v3h2v3h2l6 8 5 6 6 7 7 5 3 1v3l1 3 3 1h-2v2h2v2l6 3-2-4h3l-1-9-4-3 2-2h3v-7l4 2-2 1v4l2 1-1 1 2-2 4 1 10 8 7 5v2l2 1 1 3 2-2 1 3 2-1 6 4 1 1 4 3 3 1 2 2 4 3v2l5 1 10 5 2-1 1 2 7 2 9 2v2l3-1 5 1v2l3-1 6 2 5 1 6 1 12 1 5 1 14 1h17l17-1 9-4h-25v-150l1-1 15-2 16-3 15-6 14-8 6-5 5-4 10-16 6-15 2-8 2-29 7 2 1 6 4 2 2 5 3 4 3 7 4 5 5 10 4 4v3l7 2 3 4v2h3l-1-7 2-1 6 1-4-4h-3l-1-6 5-2-9-6-5-5-1-9 2-4 8-7h11l7 6 3 12 5-1v4l5 1v3h2v2l4 1 2-4 2-3 3-1 2-8h-2l-1-7h-2v-5l3 1-2-5-4-6 1-6-3-1-1-6h2l1-3h2l3 7 3 3 6 21 3 22v43l-1 5-3 22-4 13-5 12-9 18-8 12h-2l-1 4h-2v2h-2l-2 5-10 13-2 3h-2l-2 4h-2v2h-2l-2 4-12 9-5 2-7 5-2 4-7 3-4 1-4 4-7 3-4 4-17 7-7 3-6 2h-6l1 4 5-3 6-1 7-1 10-4 5-3 6-1 1-2 7-2v-2l8-4 10-8 11-7 5-4 5-5 6-4 7-7 1-3 4-4 1-2h2l1-4h2v-2h2l2-5 3-4h2v-3h2l1-4 4-4 1-3h2l2-6h2l1-6 6-13 4-10 1-5 3-9 8-2 9-1 6-2 2-5h-5l-4 3-2 1-1-2-3 1h-4-3l-2 6-1-3 2-10 2-1 4 4 1-3 4-1 1 2 7-2 5-1 1-6h2v-36l-2-19-2-12v-6l19-2 2-1h12l1 1 1 63v32l-2 3 2-1 2-21 3-9 4-2 7-2 6 1 1-4v-20h1v-56l-3-5-3-2-13-1-47 1-4-4-6-14-9-15v-2h-2l-10-14-8-10-2-4-4-2-3-5-8-8-6-5v-3l-4-2v-2l-4-2-10-8v-2l-4-1-8-3-8-5-8-4-5-2-1-4 3-4h3l2-4 5-6 9-5 14-7 17-6 5-1h11l9 1v1h-6l1 2h7 3l2 3 3 4v5l3 1v-7l1-3 2-12v-15l-3-5-5-2h-20l-16 3-25 9-7 2 3-3 10-4h4v-2l9-3 14-4z" fill="#8CB79C"/>
<path transform="translate(677,303)" d="m0 0h20l6 3 3 5v15l-2 12v5l-2 6-4-2-1-7h-2l-2-5-1 1h-11l2-1v-2l-3-1h-11l-13 4-13 5-14 7-6 4-6 8-3 1-2 5 1 2 7 3 12 6 5 3 8 3 5 5 9 7 4 4 3 5 10 9 4 4 2 4 5 5 9 11 8 11v2h2l12 21 5 11 2 2 54-1 7 2 5 5 1 2v65l-1 1v10l-2 4h-8l-8 3-3 9-2 21-3 1 1-3v-32l-1-63h-12l-2 1-19 1 4 25 1 12v30l-1 6h-2v6l-2 2h-6l-7 2-3-1-1 2-4-2-1-1-1 7 2-2 3 1 3-1h4 1l4-1 2-1 4 1-2 6-6 2-10 1-3 1h-4l-2 11-2 5-5 13-3 6-3 8h-2l-1 4-1 2h-2l-1 4-4 4-1 3h-2v3h-2l-2 4-3 5h-2v2l-2 1-1 3h-2l-2 5-3 1-1 4-9 9-3 1-7 7-13 9-11 8-4 3-5 1v2l-8 4-10 4-6 3-5 2-15 3-3 1-1-4 12-3 20-8 5-3h2l1-3 8-4h2l1-3 6-2 5-1 2-5 8-6 5-2 12-9 1-2h2v-2l4-4h2l2-4 12-17h2v-2h2l1-4h2l2-5 7-10 5-12 3-5 5-14 3-9 3-24 1-5v-41l-4-27-6-18-9-19v-2h-2l-1-5h-2l-4-6v-3h-2l-4-6v-2l-4-2-8-10-6-7v-2l-4-2-6-7-14-10-11-7-5-4-9-3-16-8-17-7-15-4-34-5-10-1h-17l-32 4-17 4-15 5-16 5-10 4-3 1v2l-6 4h-2v3l-14 7-13 10-13 13h-3l-1 4-5 6h-2l-2 4-7 9-10 15-6 14-7 15-4 13-4 20-2 27 2 23 3 16 4 16 5 13 6 15 9 18v2l3 1 7 10 7 9 12 13 5 5 8 5 2 3 7 4 11 8 13 8 22 11 18 6 8 2 39 3-1-18-1-74 1-57-20-1-9-2-11-5-4-2-5-5-9-6-5-4-3-1-5-6-3-4v-2h-2l-4-6-6-13-2-13v-25l2-10 5-3 5-1h11l18 1 6 2 10 3 15 8 12 9 7 10 9 13h4l2-5 6-9 6-8 5-5 3-1v-2l11-7 8-4 17-4 7-1h16l11 3 4 2 2 9v12l-2 10-1 7h-2l-1 5-1 3h-3l-3 6h2l1 4-10-3-1-3-5-2h-4l1 5 4 3-2 3-8 3-5 3-3 1-2-1-1 2h-6l-3 1-1 3-2-1v-2l2-2 2-1 1-4 16-16 6-8h2l2-10v-6h-11l-10 2v2l-10 5h-2v2l-5 3-5 4-6 10h-2l-2 5-6 9-3 8h-2l1 10 10 1v3l4-2h4l2 1v2l-4 1-2-1-1 4 1 3-2 2-2 1 1 3-5-2-1 2-1 3-4 2v129l-1 21 10-1h15l2 2-11 4-17 1h-17l-17-1-10-2h-8l-3-2h-5v-2h-8v-2h-8l-9-3-7-2-15-7-3-1v-2l-5-2-2-2-3-1-2-3h-3l-5-5h-3l-1-1h-3l-1-6-4-2-3-1-5-5-6-5-3-1-1 3-4-1 2-2 1-5-2-1-1 6-4 2 3 1 2 9-3 3 2 4-4-2-3-2v-2h-2l-2-5-2 1 1-5-5-2-5-4-6-7-7-8-3-4v-2h-2v-3h-2l-4-7 1-2h2l3 7 4 3 1 1 3 4 1 2 2-1 3-2-1-5 2-2 2 4h4l2-2h1l-4-6-6-3-12-4-4-3v-2l-5-1v-2l-8-1-8-16-8-24-4-23-2-23v-19l6-36 5-17 8-21 9-17 10-15 11-14 12-13 8-8 11-9 6-7 11-7 12-8 16-9 13-6 16-6 14-4 11-3 30-5h41l13 2 24 4 14 4 9 1 11-11 8-7 5-4 4-3h2v-2l11-6 12-4 25-9z" fill="#FBFCFB"/>
<path transform="translate(690,484)" d="m0 0h2l3 7 3 3 6 21 3 22v43l-1 5-3 22-4 13-5 12-9 18-8 12h-2l-1 4h-2v2h-2l-2 5-10 13-2 3h-2l-2 4h-2v2h-2l-2 4-12 9-5 2-7 5-2 4-7 3-4 1-4 4-21 10-14 5-8 3-37 6h-10v-150l1-1 15-2 16-3 15-6 14-8 6-5 5-4 10-16 6-15 2-8 2-29 7 2 1 6 4 2 2 5 3 4 3 7 4 5 5 10 4 4v3l7 2 3 4v2h3l-1-7 2-1 6 1-4-4h-3l-1-6 5-2-9-6-5-5-1-9 2-4 8-7h11l7 6 3 12 5-1v4l5 1v3h2v2l4 1 2-4 2-3 3-1 2-8h-2l-1-7h-2v-5l3 1-2-5-4-6 1-6-3-1-1-6h2z" fill="#3B8A5C"/>
<path transform="translate(496,369)" d="m0 0h17l32 4 20 4 17 6 18 8 9 5 6 2 9 6 13 9 9 7 6 7 5 5 9 11 3 6 4 4 2 3v3h2l1 3 3 3 1 3-5 1v-4h-2l-5-6 1-4-5-1-4-4v-2l-5-2v-2l-4-1-2-2-5-2-5-5h-2v-2l-4-1-2-3-3-1-1-2-10-4-6-4v-2h-3v-2l-6-2-4-3h-7v-2l-12-2-6-2-16-3-9-2h-6l-2-2h-3-8l-9 1-6 1-8-3h-11l-10 1-11 1-16 3-11 4-10 3-9 5-13 5-14 8-12 10-5 3-5 5-3 1-2 4-6 4-9 13-1 3-5 5-5 10-1 4-5 8-4 11-3 8-3 14-3 9-1 9-1 4 1 5-1 2v19l2 9 1 8 1 2 1 13 4 12 4 8 3 5 9 9 1 2h2v2l11 3 4-2 10-4h4v-2l6-3 2-4 9-4 5-2 3 1 9-5 2-3v-7l2-5 2-1v-15l-1-4 1-4-3-4 1-4 8 3 9 7 12 7 10 4 9 2 20 1 1 1-1 64 1 85h-12l-27-2-21-6-9-4-17-8-5-4-11-6-13-10-5-3v-2l-5-2-5-4-5-5-14-15-11-16-4-4-3-7-5-10-12-30-4-17-3-21-1-16 2-26 5-23 4-12 7-15 5-12 15-22 5-6h2l2-4 3-3 1-3 5-3 13-13 14-10 8-4h3v-3l6-4h2v-2l7-4 18-6 11-3 8-3 17-4z" fill="#3A8A5C"/>
<path transform="translate(492,149)" d="m0 0h25l16 4 14 7 14 10 16 16 8 14 5 14 2 14-1 17-3 15-6 16-10 15-9 10-12 9-18 8-18 4h-24l-16-4-13-7-11-9-9-8-9-11-8-14-5-13-3-15v-14l3-14 5-13 8-14 9-10 7-7 15-10 15-7z" fill="#FBFBFB"/>
<path transform="translate(393,400)" d="m0 0h2v2l-14 7-13 10-13 13h-3l-1 4-5 6h-2l-2 4-7 9-10 15-6 14-7 15-4 13-4 20-2 27 2 23 3 16 4 16 5 13 6 15 9 18v2l3 1 7 10 7 9 12 13 5 5 8 5 2 3 7 4 11 8 13 8 22 11 18 6 8 2 39 3-1-18-1-74 1-57-20-1-9-2-11-5-4-2-5-5-9-6-5-4-3-1-5-6-3-4v-2h-2l-4-6-6-13-2-13v-25l2-10 5-3 5-1h11l18 1 6 2 10 3 15 8 12 9 7 10 9 13h4l2-5 6-9 6-8 5-5 3-1v-2l11-7 8-4 17-4 7-1h16l11 3 4 2 2 9v12l-2 10-1 7h-2l-1 5-1 3h-3l-3 6h2l1 4-10-3-1-3-5-2h-4l1 5 4 3-2 3-8 3-5 3-3 1-2-1-1 2h-6l-3 1-1 3-2-1v-2l2-2 2-1 1-4 16-16 6-8h2l2-10v-6h-11l-10 2v2l-10 5h-2v2l-5 3-5 4-6 10h-2l-2 5-6 9-3 8h-2l1 10 10 1v3l4-2h4l2 1v2l-4 1-2-1-1 4 1 3-2 2-2 1 1 3-5-2-1 2-1 3-4 2v129l-1 21 10-1h15l2 2-11 4-17 1h-17l-17-1-10-2h-8l-3-2h-5v-2h-8v-2h-8l-9-3-7-2-15-7-3-1v-2l-5-2-2-2-3-1-2-3h-3l-5-5h-3l-1-1h-3l-1-6-4-2-3-1-5-5-6-5-3-1-1 3-4-1 2-2 1-5-2-1-1 6-4 2 3 1 2 9-3 3 2 4-4-2-3-2v-2h-2l-2-5-2 1 1-5-5-2-5-4-6-7-7-8-3-4v-2h-2v-3h-2l-4-7 1-2h2l3 7 4 3 1 1 3 4 1 2 2-1 3-2-1-5 2-2 2 4h4l2-2h1l-4-6-6-3-12-4-4-3v-2l-5-1v-2l-8-1-8-16-8-24-4-23-2-23v-19l2 2 2 5v13l-1 8 1 9 3-1 3-3 6 1 1 2 1 1 3 5v2l3 1 1-7-1-5-2-1 2-4-3 1v-6h3l2 7v-12l-1-2-1 4-5-2-1-3 1-5 4 3v-5l1-2h2l1-18 1-10-1-5 4-10 3-9 6-15 4-8 4-10 8-11 4-7h2l2-4 3-1 4-8 8-7 16-15 11-9 4-2 8-2z" fill="#F4FAF3"/>
<path transform="translate(678,700)" d="m0 0h2l-1 5-1 123-1 3h-2v2l-10 3-4 1h-75l-12-3-5-5-2-4v-52l-11 2-1 1-13 2-10 2-12 1-3 1h-31l-3-1-19-2-8-2-7-2-6-1v54l-4 5-12 4h-84l-8-4-3-5-1-4v-21l-1-68 1-12v-18-3l8 10 3 1v2l4 2 12 11 8 7 12 8 19 10 15 8 10 4 35 9 13 2 17 2 21 1 21-2 16-2 17-4 4-1 13-4 8-1 6-4 16-7 10-5 5-3 8-4 14-10 3-1v-2l5-4 5-6h2v-2l6-5 1-2 5-3z" fill="#083827"/>
<path transform="translate(496,363)" d="m0 0h18l13 2 11-1 8 2 13 1 19 6 5 4 5 3 8 1 5 3v2l3 1 3 5 8 4 6 4v2l6 2 5 4 5 1 6 3v2l10 4 4 8v2l2 1 2-9 2-2 4-1 1-5-1-5h-2v-2l5 2 10 10 2 4 5 5 9 11 8 11v2h2l12 21 5 11 2 2 54-1 7 2 5 5 1 2v65l-1 1v10l-2 4h-8l-8 3-3 9-2 21-3 1 1-3v-32l-1-63h-12l-2 1-19 1 4 25 1 12v30l-1 6h-2v6l-2 2h-6l-7 2-3-1-1 2-4-2-1-1-1 7 2-2 3 1 3-1h4 1l4-1 2-1 4 1-2 6-6 2-10 1-3 1h-4l-2 11-2 5-5 13-3 6-3 8h-2l-1 4-1 2h-2l-1 4-4 4-1 3h-2v3h-2l-2 4-3 5h-2v2l-2 1-1 3h-2l-2 5-3 1-1 4-9 9-3 1-7 7-13 9-11 8-4 3-5 1v2l-8 4-10 4-6 3-5 2-15 3-3 1-1-4 12-3 20-8 5-3h2l1-3 8-4h2l1-3 6-2 5-1 2-5 8-6 5-2 12-9 1-2h2v-2l4-4h2l2-4 12-17h2v-2h2l1-4h2l2-5 7-10 5-12 3-5 5-14 3-9 3-24 1-5v-41l-4-27-6-18-9-19v-2h-2l-1-5h-2l-4-6v-3h-2l-4-6v-2l-4-2-8-10-6-7v-2l-4-2-6-7-14-10-11-7-5-4-9-3-16-8-17-7-15-4-34-5-10-1h-17l-32 4-17 4-15 5-11 3 2-4 10-3 7-7 7-1h12l1-4 6-3h25z" fill="#F4FAF4"/>
<path transform="translate(680,301)" d="m0 0h15l9 3 3 4v36l-1 1-2 20-1 1-3 14-4 13-8 14-3 5h-2v7l8 9v2h2l14 19 9 14 7 15 2 4h17l14-1h22l11 3 5 6v124l-4 9-5 4-3 2-8 1h-26l-23-1 2-3 2-1 3-12 4-6 9-1 2-1-7-2h-6l-1-1v-7l3-18v-30l-2-19-2-12v-6l19-2 2-1h12l1 1 1 63v32l-2 3 2-1 2-21 3-9 4-2 7-2 6 1 1-4v-20h1v-56l-3-5-3-2-13-1-47 1-4-4-6-14-9-15v-2h-2l-10-14-8-10-2-4-4-2-3-5-8-8-6-5v-3l-4-2v-2l-4-2-10-8v-2l-4-1-8-3-8-5-8-4-5-2-1-4 3-4h3l2-4 5-6 9-5 14-7 17-6 5-1h11l9 1v1h-6l1 2h7 3l2 3 3 4v5l3 1v-7l1-3 2-12v-15l-3-5-5-2h-20l-16 3-25 9-7 2 3-3 10-4h4v-2l9-3 14-4z" fill="#87B698"/>
<path transform="translate(495,180)" d="m0 0h21l13 4 2 1v2h2v2l8 1 10 9 6 10 5 14 1 16-2 13-4 11h-2l-2 6-6 8-8 5-8 6-8 3-11 2h-16l-15-4-12-7-10-8-9-14-2-13v-24l3-9 6-11 4-5h2v-2l9-6 15-8z" fill="#78C28F"/>
<path transform="translate(330,702)" d="m0 0 5 5 4 5 3 1v2l4 2 12 11 8 7 12 8 19 10 15 8 10 4 12 3v2l10 2-1 6v50l-4 5-12 4h-84l-8-4-3-5-1-4v-21l-1-68 1-12v-18z" fill="#083827"/>
<path transform="translate(607,521)" d="m0 0 2 2 1 9 3 3 2 7 1 17v10l-3 11-3 4-1 5-2 1-3 6-5 7h-2l-2 4-11 7-8 4-3 2-11 3-5 4-4 2-6 5-2 5-2 3 1 19 3 10 2 9 2 4 2 7 5 7 5 6 3 1v2l3 1 2 2h6v2l6 1 1-5h5l4 3 2-2 6 1h6v2l7-1 5-2v-2l5 1h2l8-6 1-3 3 1-1 4-13 10-3 3-1 2-7 3-4 1-4 4-21 10-14 5-8 3-37 6h-10v-150l1-1 15-2 16-3 15-6 14-8 6-5 5-4 10-16 6-15 2-8 1-10z" fill="#093928"/>
<path transform="translate(393,400)" d="m0 0h2v2l-14 7-13 10-13 13h-3l-1 4-5 6h-2l-2 4-7 9-10 15-6 14-7 15-4 13-4 20-2 27 2 23 3 16 4 16 5 13 6 15 9 18v2l3 1 7 10 7 9 12 13 5 5 8 5 2 3 7 4 11 8 13 8 22 11 18 6 8 2 39 3-1-18-1-74 1-57 3-1v66l2 22h2 1 4l1 13 2-1 2-4-1-1-1-3 4-1 1 19 1-110 3-1v131l-1 21 10-1h15l2 2-11 4-17 1h-17l-17-1-10-2h-8l-3-2h-5v-2h-8v-2h-8l-9-3-7-2-15-7-3-1v-2l-5-2-2-2-3-1-2-3h-3l-5-5h-3l-1-1h-3l-1-6-4-2-3-1-5-5-6-5-3-1-1 3-4-1 2-2 1-5-2-1-1 6-4 2 3 1 2 9-3 3 2 4-4-2-3-2v-2h-2l-2-5-2 1 1-5-5-2-5-4-6-7-7-8-3-4v-2h-2v-3h-2l-4-7 1-2h2l3 7 4 3 1 1 3 4 1 2 2-1 3-2-1-5 2-2 2 4h4l2-2h1l-4-6-6-3-12-4-4-3v-2l-5-1v-2l-8-1-8-16-8-24-4-23-2-23v-19l2 2 2 5v13l-1 8 1 9 3-1 3-3 6 1 1 2 1 1 3 5v2l3 1 1-7-1-5-2-1 2-4-3 1v-6h3l2 7v-12l-1-2-1 4-5-2-1-3 1-5 4 3v-5l1-2h2l1-18 1-10-1-5 4-10 3-9 6-15 4-8 4-10 8-11 4-7h2l2-4 3-1 4-8 8-7 16-15 11-9 4-2 8-2z" fill="#DFEBE1"/>
<path transform="translate(497,393)" d="m0 0h11l8 3 9-1 13-1 3 1 2-1 1 2h7l16 4 11 2 15 4v2l7-1 4 3 6 3v2h3l3 3 4 3 10 4v2l4 1 2 3 3 1v2l3-1 5 6 6 2 1 2 3 1 10 10 4 1 1 5 3 3v2h2l1 3 3-1-3-4-2-1 1-3h-2l-4-7v-2l-4-2 1-2 5 5 3 4v2h2l4 7v2h2l1 5h2l9 19-1 2-3-5v-3h-2l-1 4v3 2l2 1v6l5 7v4h-2l-1 4h2l1 7h2l-1 9-4 1-4 6-4-1v-2h-2l-3-3-2-1-1-3h-3l-1 2-3-12 3 2 1 4 3-6 5-8 2-2-1-8-2-6 2-4-3-8-3-3-2-6h-2l-2-4-1-5-2-4-6-2-2-4v-5l-6-2-7-4-3 1-1-4h-2l-1-2-7-4-1-3-4-2-11-6-12-7-11-5-19-6-15-3h-5l-4-2-8-1h-14l-7 3-10-4-4-1h-13l-26 2-8 5-20 5-7 5-7 1v2l-19 9-6 5-12 9-4 5-8 7-3 1-9 13-4 5-4 7-3 5-7 12-3 5-6 15-2 12-1 13-1 11v19l2 17 2 1 1 4 2 1 1 3 3 1 1 4 2 1 1 4v2l2 6 2 1v2l13-2 6-5 7-1 8-4 5-2 9-6 3-1v-2l2-1-1-3 1-4 3 1 1 1 1-5 2-2 2-9-2-6-4-5 1-4 2 5h2l6 8 5 3v2l4 1 11 8 7 5h-3l-8-5-6-5-7-2 1 4 2 4-1 4 1 3v15l-2 3h-2v10l-4 5-9 4-3-1-4 2-9 4-2 4-6 2v2l-14 5-4 2-9-3-2-1v-2l-4-1-7-8-4-4-4-9-4-11-1-3-1-13-2-5v-7l-2-7v-19l1-4-1-5 1-2 2-12 3-12 4-15 4-9 7-14 3-7 6-9h2l1-5 9-12 7-5 5-5 3-1 1-3 11-8 12-9 5-2 8-4 11-4 8-5 12-3 9-3 16-3 9-1z" fill="#58A977"/>
<path transform="translate(496,369)" d="m0 0h17l32 4 20 4 17 6 18 8 14 8 1 3h-4v-2l-4-1-7-3-6-3-16-3-17-5-10-2-19-1h-10l-12 1h-5v-2l-13 1-12 3h-6l-4 1-10 2-6 1-15 6-8 4-10 4h-3l-1 2-8 1-10 11-8 1-6 7-9 6-7 9h-3l-2 4-5 4h-2l-2 5-4 5-2 1-2 5-10 12-1 7h-2l-3 10-6 8-3 12v8h-2l1 3-1 1-2 18-2 14-1 19 1 6v14l2 8 2 9 1 12 3 6 2 2 1 4-2 1 3 7 1 5h-4l-4-8-12-30-4-17-3-21-1-16 2-26 5-23 4-12 7-15 5-12 15-22 5-6h2l2-4 3-3 1-3 5-3 13-13 14-10 8-4h3v-3l6-4h2v-2l7-4 18-6 11-3 8-3 17-4z" fill="#175839"/>
<path transform="translate(455,165)" d="m0 0 2 1-4 2-2 4-5 5-5 3-8 10-8 16-4 13-1 6v19l3 14 4 2 2 6 1-1 1-5 2-2h2l3 3 4 1 4 2-1 2 5-1 1 4-1 1 5 4 5 5 9 7 15 7 4 1 9 1h10l17-2 9-4 11-6 3-1 1-3 6-5 6-10 4-11 1-7 4-10-1-3 6-2h3v2l5-1 4 2h2v-9l-3-15-4-10-1-5-4-4-2-5-10-9-2-2 1-3 14 14 8 14 5 14 2 14-1 17-3 15-6 16-10 15-9 10-12 9-18 8-18 4h-24l-16-4-13-7-11-9-9-8-9-11-8-14-5-13-3-15v-14l3-14 5-13 8-14 9-10 7-7z" fill="#57A876"/>
<path transform="translate(680,301)" d="m0 0h15l9 3 3 4v36l-1 1-2 20-1 1-3 14-4 13-8 14-3 5h-2l-2 4-7-6-9-8-2-1v-2l-4-2v-2l-4-2-10-8v-2l-4-1-8-3-8-5-8-4-5-2-1-4 3-4h3l2-4 5-6 9-5 14-7 17-6 5-1h11l9 1v1h-6l1 2h7 3l2 3 3 4v5l3 1v-7l1-3 2-12v-15l-3-5-5-2h-20l-16 3-25 9-7 2 3-3 10-4h4v-2l9-3 14-4z" fill="#3C8B5D"/>
<path transform="translate(607,521)" d="m0 0 2 2 1 9 3 3 2 7 1 17v10l-3 11-3 4-1 5-2 1-3 6-5 7h-2l-2 4-11 7-8 4-3 2-11 3-5 4-4 2-6 5-2 5-2 3 1 19 3 10 2 9 2 4 2 7 5 7 5 6 3 1v2l3 1 2 2h6v2l6 1 1-5h5l4 3 2-2 6 1h6v2l7-1 5-2v-2l5 1h2l8-6 1-3 3 1-1 4-13 10-3 3-1 2-7 3-4 1-4 4-21 10-14 5-8 3-14 2v-5l-1-4-1-5-2-5-4-23-3-10v-11l-2-14-2-17-1-7 2-12 2-9 6-5 16-8 8-3 4-3 10-4 7-6 5-2 3-9h2l2-4 3-7-1-5-2-5 1-6h-3l3-9 5-16 1-10z" fill="#1E6641"/>
<path transform="translate(414,494)" d="m0 0h22l15 2 9 4 5 6 5 3 7 3 1 3 3 1v6h4v2l4 1 3 3 1 7 4 4 1 6 2 2 4-4 6 2 4-7 4 1 1-4 1-3-2-1v-4h2v-5h3l1-3h6l2 5v7l-3 10h-2v3h-4l-2 7-4 3-2 6-1 4-6 3-4-6v-4h-8l-6-8-3-2v-4l-3 1-3-7-2-1v-3h-2l-1 2v-2h-2l-1-4-6-1-2-2-1-4-2 1-10-2v-2l-4-1v-2l-3 1-2-2h-6l-4-2-1 2h-2v-2h-2v3h2l2 10 5 8 2 2 2 5 6 7 8 7 10 9 2 1v2h2l2 4 2 1 2 6-8-1-2-2-12-3-1-2-5-3-1-3-10 2-2-1v2h-2l-1 2-5 1-7-6v-2h-2l-4-6-3-9-3-5-2-16v-10l1-15 3-5z" fill="#FCFCFC"/>
<path transform="translate(438,373)" d="m0 0m-1 1m-1 1m-1 1m-1 1m-5 1h5l-1 2-10 3-2 3-15 6-3 1v2l-14 8-7 2-5 3-9 7-9 9-8 7-5 5h-2l-2 5-5 5-2 3h-2l-2 5-7 11-4 6-5 13-6 13-3 7-4 13-1 3 1 7-3 25-2 3v5l-3-1h-1l-1 4 5 3 1-5 2 3v14l-2-1-1-8-2 2v3h2l-1 4 3 7-1 7-4-2-3-6h-3v-3l-7-1-1 3-3 1-1-1-1-14 1-6v-10l-2-5 1-16 5-25 4-14 8-21 9-17 4-6 1 2-1 5 4-1 1-3 2 1 1 6-1 5 1 2 4-2 1-3 5-4h2l2-7h2v-5l6-6v-7l-1-5h13l4-3 4-1v-4l9-6 2-3h2l1-4 10-3 1-3 5-1v-3h4l2-2h2l7-4 2-7 9-2 13-2z" fill="#F5FAF4"/>
<path transform="translate(568,517)" d="m0 0h11l1 1v6l-3 10h-2l-2 4-11 12-9 9-3 6h-2l2 2 4-4h6l10-4 4-2 5-2 1-2-5-5 1-4h4l3 1v2h2l3 3 7 2v-3h-2l3-6h3l1-5 1-3h2l1-15 2 1v12l-5 16-7 14-8 11-9 7-13 8-11 5-14 4-12 2h-10l3-2v-3l4-1 3 2-2-4h2l1-2v-3l2-1v-3h6v-2l-5-1v2h-5v-3h-10l-1-1v-10h2l3-10 7-10 1-2h2l2-5 6-8 5-4h3v-2l10-5h2v-2z" fill="#DDE9E0"/>
<path transform="translate(211,469)" d="m0 0h11l6 4 2 3v20l-1 7 2 14 4 8 4 5v2h2l5 5 3 2v2l9 3 14 1 1 29 1 9-2-1-1-7-3-2-15-1-16-7v-2l-4-2-7-6v-2l-3-1v-2l-3-1v-2h-2l-9-14-3-6v-3h-2l-3-10v-33l5-9z" fill="#8BB79B"/>
<path transform="translate(701,503)" d="m0 0 2 2 4 19 1 2 1 26h2l1-9 5-4-2-5 2-3 2-2v-3l4-2h3l1-2 3-1v-12l4-1 15-1 2 2-19 1 4 25 1 12v30l-1 6h-2v6l-2 2h-6l-7 2-3-1-1 2-4-2-1-1-1 7 2-2 3 1 3-1h4 1l4-1 2-1 4 1-2 6-6 2-10 1-3 1h-4l-2 11-2 5-5 13-3 6-3 8h-2l-1 4-1 2h-2l-1 4-4 4-1 3h-2v3h-2l-2 4-3 5h-2v2l-2 1-1 3h-2l-2 5-3 1-1 4-9 9-3 1-7 7-13 9-11 8-4 3-5 1v2l-8 4-10 4-6 3-5 2-15 3-3 1-1-4 12-3 20-8 5-3h2l1-3 8-4h2l1-3 6-2 5-1 2-5 8-6 5-2 12-9 1-2h2v-2l4-4h2l2-4 12-17h2v-2h2l1-4h2l2-5 7-10 5-12 3-5 5-14 3-9 3-24 1-5v-41l-4-27z" fill="#E2ECE4"/>
<path transform="translate(495,180)" d="m0 0h21l13 4 2 1v2h2v2l8 1 10 9 6 10 1 2v12l-2-2v-4l-3-1-5-5v-2l-4-1-7-3-6-3-11-1-3-1h-13l-9 2-10 5-5 3-10 10-4 9-2 8v26l4 6-1 2-1 1 4 1 4 6v3l-4-1-1-3-7-1-5-6-7-11-2-13v-24l3-9 6-11 4-5h2v-2l9-6 15-8z" fill="#3E8C5F"/>
<path transform="translate(751,508)" d="m0 0h13l1 1 1 68v25l-1 1h-31l-1-1v-7l3-18v-30l-2-19-2-12v-6z" fill="#165839"/>
<path transform="translate(562,172)" d="m0 0 7 6 8 8 8 14 5 22v18l-3 15-6 18h-3l-1 3-5 4-3 2-3 1v-2l2-1-2-1-2 2-3-1v-2l-4 2-2-1v-2h-2l-2 4-3 3h-2v2l-16 8-6 2-16 2-17 1 9 2 3 2-7 2-1 4-2 2h-5l-1 3-4-1-3 1-1-3-5 1-3 1-12-7-3-2-1-4-3-3v-2h-2v-2h-2l-5-7v-2l-3-1-1-8 6-3 5 3v2l6 1 3 4 7 2 17 9 5 1 9 1h10l17-2 9-4 11-6 3-1 1-3 6-5 6-10 4-11 1-7 4-10-1-3 6-2h3v2l5-1 4 2h2v-9l-3-15-4-10-1-5-4-4-2-5-10-9-2-2z" fill="#79C290"/>
<path transform="translate(577,493)" d="m0 0 14 1 3 1 3 3 6 2 3 13-1 7-2 15h-2l-1 5-1 3h-3l-3 6h2l1 4-10-3-1-3-5-2h-4l1 5 4 3-2 3-8 3-5 3-3 1-2-1-1 2h-6l-3 1-1 3-2-1v-2l2-2 2-1 1-4 16-16 6-8h3l2-5h2v-11l-1-2-14-2-4-1-1-5-4 1 1 6-2 3h-6l1-9h-7l-2 5h-2v2l-7 1-1-1v-6l5-6 6-1 1-3 8-3 15-3z" fill="#F5FAF4"/>
<path transform="translate(504,199)" d="m0 0h13l6 1 8 1 6 3 7 3 4 2 6 7 2 1 1 4 1-7 2 3 2 6 1 16-2 13-4 11h-2l-2 6-6 8-8 5-8 6-8 3-11 2h-16l-15-4-12-7-4-4h4l2 3 3 1-5-9-3-1 1-3-4-7v-26l4-12 5-8 5-4h2l2-4 16-8zm-4 3-11 4-8 7-7 6-2 4-3 2-4 13 1 20 3 7v4l3 1h3l2 4 6 2h5 3l9-3 8-1 4-1 1 2 5-3 10-1 6-4 3-3v-2l7-1v-3l4-1 5-4 3-2 2-5v-17l-5-8h-2v-2l-7-6-6-3-2-2-12-3-5-1z" fill="#58A877"/>
<path transform="translate(553,375)" d="m0 0 7 1 14 4 22 9 17 9 2 4h-4v-2l-4-1-7-3-6-3-16-3-17-5-10-2-19-1h-10l-12 1h-5v-2l-13 1-12 3h-6l-4 1-10 2-6 1-15 6-8 4-10 4h-3l-1 2-8 1-10 11-8 1-6 7-9 6-7 9h-3l-2 4-5 4h-2l-2 5-4 5-2 1-2 5-10 12-1 7h-2l-3 10-6 8-3 12v8h-2l1 3-1 1-2 18-2 14-1 19 1 6v14l2 8 2 9 1 12 3 6 2 2 1 4-2 1 3 7 1 5h-4l-4-8-7-17v-3h2l-1-6v-9l-2-9-3-25v-17l1-10 1-3-1-7 2-7 4-16 3-17 4-5 5-12 7-10 7-4 2-5 6-12 8-9 3-1 8-8 5-4h3l1-3 3-4 2 1 5-5 2-1 2-4 9-5 10-5 7-3 8-2h5v-2l5-2 11-2 1-3 9-3 20-3 13-1 4-1 26 1 11-1 10 1 13-1 1-2z" fill="#1E6641"/>
<path transform="translate(515,599)" d="m0 0 1 2v129l-1 21 10-1h15l2 2-11 4-17 1h-17l-9-1v-1l9-1-1-1-15-1-2-1-11-1-3-2 28 2-1-18-1-74 1-57 3-1v66l2 22h2 1 4l1 13 2-1 2-4-1-1-1-3 4-1 1 19 1-110z" fill="#DAE7DD"/>
<path transform="translate(541,190)" d="m0 0 5 2 6 5 5 6 3 6v2h2v2l2 1h-2l3 4 2-3h2l2 2 1-5 3-1 3 3 6 4 1-3v-5l2 3 2 12v10l-5-1-7-1h-4l-4 1 1 3-4 10-3 12-6 12-7 8-9 7-12 6-7 2-15 2h-10l-11-1-15-7-9-6-6-7-4-2v-2l-4-2h3v-2l-6-1-1-2-5-2-6-2-1 1-1 4-1 2-2-1-3-7-3-3-3-12v-19l4-16 1 4-2 12v12l2-3h9l7 1 4 1 2-9 2-3 1 23 2 13 9 14 10 8 14 7 13 3h15l13-3 8-3 10-8 4-1 2-5 4-5 2-4h2l3-11 2-13-1-16-6-16-6-9-8-7z" fill="#E1ECE3"/>
<path transform="translate(501,171)" d="m0 0 15 2 4 2 4 1 5 2h6l5-2 1 3h-2l1 6 4 2v2l6-3 4-3 5 2v4h5l4 4 9 2 1-2 3 2 3 9 2 11v6l-5-4-7-4h-2l-1 5-2-1v-2l-2 1-2 4-3-4v-5h-2l-5-9-5-6-7-5-10-2v-2h-2v-2l-11-3-4-1h-21l-10 3-17 9-3 3h-2v2h-2l-2 4-6 10-3 6-3 9-2 9h-3-7l-7-1h-4l-3 3v-13l2-4 1 3 5-2 1-7 2 1v6h7l4-2 3-7v-4h2l1-6 5-5 5-6v-3l6-4v-3h2v2l13-5 5-3 7-2z" fill="#F0F7F0"/>
<path transform="translate(435,517)" d="m0 0 10 2 13 5 10 6v2l6 2 5 6 4 7 8 16 1 6v8h-8l-9-4-8-6v-2l-4-2-13-12-8-7-3-4-2-5-4-5-3-7v-5z" fill="#246B46"/>
<path transform="translate(680,301)" d="m0 0h15l9 3 3 4v36l-1 1-2 20-1 1-3 14-2 6-2 1-4 8-5 1v-3l-7 3h-7v-9l3-33 2-17v-4l-9-1v-1h11l9 1v1h-6l1 2h7 3l2 3 3 4v5l3 1v-7l1-3 2-12v-15l-3-5-5-2h-20l-16 3-25 9-7 2 3-3 10-4h4v-2l9-3 14-4z" fill="#89B69A"/>
<path transform="translate(568,517)" d="m0 0h11l1 1v6l-3 10-5 3-11 12-8 8-22 18-4 1h-10l1-13 3-6 7-11h2l2-5 6-8 5-4h3v-2l10-5h2v-2z" fill="#195C3C"/>
<path transform="translate(605,536)" d="m0 0h2l2 4v20l1 4v7l-3 12-3 1-2 5-7 9-1 2h-2v2l-7 4-4 4-8 4-8 3-5 1-1 2-8 3-8 6-4 8-1 3v13l3 17 1 9 5 24 2 10 3 7 1 9 7 4 1 8-2 4-11 2v-5l-1-4-1-5-2-5-4-23-3-10v-11l-2-14-2-17-1-7 2-12 2-9 6-5 16-8 8-3 4-3 10-4 7-6 5-2 3-9h2l2-4 3-7-1-5-2-5 1-6h-3l7-21z" fill="#165839"/>
<path transform="translate(373,761)" d="m0 0h4v2l10 3 8 7 6 8 5 4 4 12-1 8-3 9-2 1-17 1-7 1-5-3-4-10v-41z" fill="#165839"/>
<path transform="translate(212,471)" d="m0 0h9l5 2 1 3 1 35 3 9 4 8v3h2l1 3 4 4-3 1-5-3-9 2-6 5-6-7-3-5v-2h-2l-5-19v-28l4-8z" fill="#FBFCFB"/>
<path transform="translate(416,492)" d="m0 0h11l18 1 5 2v1l-22-1h-14l-6 3-1 6-1 12v10l2 16 4 6 3 10 2 4h2v2l3 1 4 4 8-2v-2l12-1 3 4 6 3 10 3 2 2 7 1-2-3 1-2-4-2 1-2 8 6 6 2 8 1v-8l3 1v8l-2 1-10 1h8l-1 3 1 5-5 1 2 6 3 1 1 4h-20l-9-2-11-5-4-2-5-5-9-6-5-4-3-1-5-6-3-4v-2h-2l-4-6-6-13-2-13v-25l2-10 5-3z" fill="#E2ECE4"/>
<path transform="translate(428,518)" d="m0 0h2l3 10 4 6 2 2 2 5 6 7 8 7 10 9 2 1v2h2l2 4 2 1 2 6-8-1-2-2-12-3-1-2-5-3-1-3-10 2-2-1v2h-2l-1 2-5 1-7-6v-2h-2l-4-6-3-9-3-5v-3l4 1h3l4-9h6l2-6v-5h2z" fill="#F4F9F3"/>
<path transform="translate(496,363)" d="m0 0h18l13 2 11-1 8 2 13 1 19 6 5 4 5 3 8 1 5 3v2l3 1 3 5 8 4 6 4v2l6 2 5 4 5 1 6 3v2l10 4 4 8 1 5 5 6v2h2l4 6 3 3h-3l-9-11-6-7v-2l-4-2-6-7-14-10-11-7-5-4-9-3-16-8-17-7-15-4-34-5-10-1h-17l-32 4-17 4-15 5-11 3 2-4 10-3 7-7 7-1h12l1-4 6-3h25z" fill="#F1F7F1"/>
<path transform="translate(573,492)" d="m0 0h16l11 3 4 2 2 9-2 4-1-10-6-1-3-2v-2l-17-1-15 2-15 4-3 3-7 3-3 4v6h7v-2h2l2-5 5-1 2 1v8h5l1-4-1-5 5-1 2 5 8 2 9 1 2 3v8l-1 3-5 5 2-10v-6h-11l-10 2v2l-10 5h-2v2l-5 3-5 4-6 10h-2l-1-5h2l2-10v-7l-1-4h-6l-1 2h-3v5l-1 4 1 5-2 3-4-1-1 4-3 4-6-2-5 4-3-6v-5l-4-2-1-7-3-3-7-3-1-6-6-5-7-3-5-5-5-4-6-2v-2l10 3 15 8 12 9 7 10 9 13h4l2-5 6-9 6-8 5-5 3-1v-2l11-7 8-4 17-4z" fill="#F1F7F0"/>
<path transform="translate(495,180)" d="m0 0h21l13 4 2 1v2h2v2l5 1 1 4-9-2-13-1-21 2-9 4-10 5-4 5h-2l-2 4-5 5-3 5-3 7-1 7-1 1-2 12v7l1 7-4-4-2-5-1-6v-24l3-9 6-11 4-5h2v-2l9-6 15-8z" fill="#195C3C"/>
<path transform="translate(732,510)" d="m0 0h10l4 1-1 9 1 20 2 17v7l2 1 3 9 5 23v2h6v3l-30 1-1-1v-7l3-18v-30l-2-19-2-12z" fill="#0A3C2A"/>
<path transform="translate(793,560)" d="m0 0h1v54l-4 9-5 4-3 2-8 1h-26l-23-1 2-3 5-1h10l-2-4-2-1 4-2h2l1-2 4-1 4-2h3v-3l-2-2 9-1 2 4h3l1-8 1-5 15 1 4 2h2z" fill="#3A8A5C"/>
<path transform="translate(790,490)" d="m0 0 2 2v65l-1 1v10l-2 4h-8l-8 3-3 9-2 21-3 1 1-3v-32l-1-64h2l1 26 3 3 3-3 5-4 5 1 4-1 2 1z" fill="#E4EDE5"/>
<path transform="translate(720,484)" d="m0 0 4 1h60l5 2 1 1v8l-4 4h-3v2l-5 3-3 1-1 2-4 1-4-5-7-2-3 1h-28l-4-4-2-9 1-2-3-2z" fill="#FCFCFC"/>
<path transform="translate(666,324)" d="m0 0h3v2h7l2 4 2 1-16 2-19 7-16 8-6 4-6 8-3 1-2 5 1 2 7 3 12 6 5 3 8 3 5 5 9 7 4 4 3 6h-9l-1 3-4 1-1 3-7-3-2-2-1-6h9l1-6-6-2-5-3v-4l-4-1-6-3-1-2-5 1v-2h2v-2h-16l-3-9v-3h2l-1-8 5-5 1-4h2l1-2 8 1-1-9 1-2 6 1 5-5 4 1 6-2 2-4 9 1 3 1 6-3z" fill="#F3F9F2"/>
<path transform="translate(672,333)" d="m0 0h5v15l-3 9-3-4-15 2-4 1-12 2-12 6-2 5 1 2-8-1-8-4 2-5 4-1 2-4 5-6 9-5 14-7 9-3h10l6 1z" fill="#236A45"/>
<path transform="translate(444,272)" d="m0 0 6 3v2l6 1 3 4 4 1 5 5 14 7 13 1v2l-4 1 9 2 3 2-7 2-1 4-2 2h-5l-1 3-4-1-3 1-1-3-5 1-3 1-12-7-3-2-1-4-3-3v-2h-2v-2h-2l-5-7v-2l-3-1-1-8z" fill="#79C28F"/>
<path transform="translate(557,498)" d="m0 0h14l5 5 4-1 3-3h10l3 3 6 3 1 9-2 9-5 1v-3l-3 3v6l-1-2-4-1-1-3 1-2h-2l1-4h4l1-2h4v-5h-2v2l-11-1h-8l-3 2-9-1-1-5-4 1 1 6-2 3h-6l1-9h-7l-2 5h-2v2l-7 1-1-1v-6l4-1 4-4 7-3 3-1 3 1v-3z" fill="#FCFCFC"/>
<path transform="translate(565,758)" d="m0 0h6 3l1 3h5v-2l5 1 3 5-1 1-14 1-12 3-10 2-2 1-4-1-6 2-9 1-5 1-3 1h-36l-5-1-21-2-2-1 1-3 5 1 1-2 7 1h3 12l3 1 7-1h3 15 3l5-1 2-2 9-1 3-2h3l5 1 1-1h7l4-3 7-1z" fill="#77C08E"/>
<path transform="translate(605,496)" d="m0 0 7 2 4 5 5 3 2 6 4 2 5 5v2l2 1 3-3h5v-3h3v-2l3-3 3 1h-2l-2 4-3 2-1 9 3 5 6 5 6 3-1 2-4 1v6l4-1 4 4-2 2-6-1v7h-3l-5-5-5-3-3-5-4-5-5-10-3-3-4-9-2-2-2-5-2-1-2-6-5-1z" fill="#57A775"/>
<path transform="translate(350,744)" d="m0 0 4 1 1 2 1 26v12l-2 4-1 7-10-5-5-9-2-7-1-11-2-2 3-3 1-4-1-3 3-3z" fill="#155738"/>
<path transform="translate(249,541)" d="m0 0 9 3 14 1 1 29 1 9-2-1-1-7-3-2-15-1-16-7v-2l-4-2-7-6v-2l-3-1v-2l4 2 9 6 7 3h5v-2l-2-10 3-3 4-2-4-2z" fill="#3A8A5C"/>
<path transform="translate(455,165)" d="m0 0 2 1-4 2-2 4-5 5-5 3-8 10-8 16-4 13-1 6v19l3 14 4 2 2 6 1-1 1-5 2-2h2l3 3 4 1 4 2-1 2 5-1 1 4-1 1 5 4 5 5 3 4-5-1-4-4-4-1v-2l-4-1h-4l-3 3 2 1v4l6 8 1 3h2v2h2l5 7h-3l-5-2-7-6-9-11-8-14-5-13-3-15v-14l3-14 5-13 8-14 9-10 7-7z" fill="#90BA9F"/>
<path transform="translate(442,588)" d="m0 0 4 1 12 6 10 3 4 1 20 1-1 21-5 1-7-2-9-4-8-4-6-7v-2l-5-1-4-4-1-5h-2v-3l-3-1z" fill="#18593A"/>
<path transform="translate(536,537)" d="m0 0 12 7-1 5h-2l1 4h-2l-2 8h-2l1 6-10 8-4 1h-10l1-13 3-6 7-11h2l2-5h4z" fill="#0D3F2C"/>
<path transform="translate(652,510)" d="m0 0h11l7 6 2 6v6l-4 6-7 5h-7l-6-4-5-5-1-9 2-4z" fill="#093B29"/>
<path transform="translate(370,705)" d="m0 0h3l2 3 7 4 11 8 13 8 22 11 18 6 8 2 11 1 3 1 11 1 5 1 12 1 3 3-19 1-10-2h-8l-3-2h-5v-2h-8v-2h-8l-9-3-7-2-15-7-3-1v-2l-5-2-2-2-3-1-2-3h-3l-5-5h-3l-1-1h-3l-1-6-4-2-3-1z" fill="#E4EEE5"/>
<path transform="translate(678,419)" d="m0 0 1 3-1 2 4-1 12 12 10 13v2h2l4 7 1 7-5 1-4-3v-2l-6-1h-1l-5 5-3-1v-2l-4-1 3-1v-2l-4 2v-3l1-2 6 2 3-1-1-11-7-1-4-4-1-6-7-3-1-5 3-1 1-3z" fill="#FBFCFB"/>
<path transform="translate(671,375)" d="m0 0h2v27l3 2h8l-1 5 1 3-4 4-10-10-7-5v-2l-4-2v-2l-4-2-10-8v-2l-4-1-2-1v-2l9 2 9-3 10-1z" fill="#175A3A"/>
<path transform="translate(451,495)" d="m0 0 10 3 15 8 12 9 7 10 9 13h4l2-5 8-12h2v6l-1 4 1 5-2 3-4-1-1 4-3 4-6-2-5 4-3-6v-5l-4-2-1-7-3-3-7-3-1-6-6-5-7-3-5-5-5-4-6-2z" fill="#F5FAF4"/>
<path transform="translate(353,394)" d="m0 0 2 1-11 10-8 7-9 9-9 11-11 15-11 19-8 18-4 11-6 25-4 26v19l2 23 4 23 6 18 5 12 4 8-1 3-3-3v-3h-2l-5-13-4-10-4-16-1-1-2-23-1-15-1-24 2-6 2-21 2-7 4-15 5-14 5-12 5-9 10-16 7-10h2l1-4 4-4 7-8 14-14h2v-2z" fill="#6C9F81"/>
<path transform="translate(764,509)" d="m0 0h1l1 68v25l-1 1h-10v-1l9-1-1-37-2-6-4-4-6-18v-11l2-5 4-2h5z" fill="#3B8B5D"/>
<path transform="translate(496,369)" d="m0 0h17l25 3 8 3 6 1v1h-56l-5-1-7 1-17 1h-10l-1-2 12-3 10-2z" fill="#0A3B29"/>
<path transform="translate(751,508)" d="m0 0h13v8l-2 4v-2l-9 3-1 4v11l7 20 4 4 1 4v28h-1v-14l-4-2-3-9-6-12-3-20v-18l4-4 9-1v-2l-9-1z" fill="#1E6641"/>
<path transform="translate(571,289)" d="m0 0v3l-7 8-10 8-16 8-13 4-10 2h-24l-16-4-13-7-11-9 1-2 10 7 12 6 5 2v2l18 1 25-2 9-2 9-5h3v-2h2v-2h4l3-3 6-3 3-4 4-1z" fill="#164C35"/>
<path transform="translate(445,520)" d="m0 0 9 2 14 8v2l6 2 5 6 3 4-1 2-2-1v3l2 1-5 2-6-1-4-3-11-2-3-5 1-9 3-3h2l-6-4-6-2z" fill="#428D62"/>
<path transform="translate(496,181)" d="m0 0h19l7 2v2l-4 1h-18l-9 3-4 1-4-2-5 4h-2l-2 4-5 5-3 6-7 6-6 7-1 2v7l-3 1v-12l8-15 4-5h2v-2l9-6 13-7z" fill="#0D412D"/>
<path transform="translate(294,651)" d="m0 0h7l2 1v2l5 1 4 4 10 3 8 4 6 9h-4l-5 1-2-2v-2l-1 3-1 2 2 1-2 2-1 2-5-1-1-3h-2l-2-5-5-5-2-3-8-8-3-2z" fill="#93BBA2"/>
<path transform="translate(676,363)" d="m0 0h1l1 10 5-1 9-1 2 5-1 4-2 1 1 4 2-2 1 2-3 10-5 1v-3l-7 3h-7v-9l2-23z" fill="#7AC190"/>
<path transform="translate(226,476)" d="m0 0h1l1 35 3 9 4 8v3h2l1 3 4 4-3 1-5-3-9 2-6 5-6-7-3-5v-2h-2l-5-19v-14h1l2 9 1 12 3 7v3l15-2 2 1 2-1-2-9-1-4z" fill="#E4EEE5"/>
<path transform="translate(482,341)" d="m0 0h41l13 2 24 4 14 4 3 2-8-1-25-5-12-2-14-1h-32l-19 2-27 6-20 6-18 8-15 8-17 11h-2l-2 5-8 3h-3l6-5 15-10 7-5 6-3 15-8 19-8 18-5 11-3 18-3z" fill="#74A889"/>
<path transform="translate(504,512)" d="m0 0 5 2 3-2 1 4 2 1 1-3 4 1 1-3h2l-2 4-3 7-4 5-6 10-4 1-6-8-2-6-3-5v-2l5 1v-5h3z" fill="#5CAA79"/>
<path transform="translate(562,172)" d="m0 0 7 6 8 8 8 14 5 22v18l-3 15-2 3-2-6h2l-1-4v-3l-5-1-5-4-3 4h-2l-2 9-2-1v-6l4-10-1-3 6-2h3v2l5-1 4 2h2v-9l-3-15-4-10-1-5-4-4-2-5-10-9-2-2z" fill="#8EB99E"/>
<path transform="translate(620,372)" d="m0 0 9 3 8 5 8 3 5 5 9 7 4 4 3 6h-9l-1 3-4 1-1 3-7-3-2-2-1-6h9l1-6-6-2-5-3v-4l-4-1-6-3-2-6-4-1-4-2z" fill="#E8F2E9"/>
<path transform="translate(449,547)" d="m0 0 6 4 4 1 1 4 6 2 5 5 5 4 4-4 4-8h3l4 8 1 6v8h-8l-9-4-8-6v-2l-4-2-13-12z" fill="#195D3C"/>
<path transform="translate(516,187)" d="m0 0 6 1 4-1 6 2 1-2v2l5 1 1 4-9-2-13-1-21 2-9 4-10 5-4 5h-2l-2 4-5 5-3 5-3 7-1 7-1 1-2 12v7l1 7-4-4-2-7 2-1v-8l6-21 1-2h2l1-5 7-8 3-1 2-4 9-7 2-2 14-2 7-2h9z" fill="#1E6641"/>
<path transform="translate(414,494)" d="m0 0h22l15 2 9 4 3 4-6-1-2-2-9-2-7-1-2-1-1 2v-2h-10l-2 4h-2v-2l-10 3-4 1v12l8 1 1 2v6l-1 2-5-1v-2l-3 2v7l2 4-3 3-1-2-1-11v-10l1-15 3-5z" fill="#F6FBF5"/>
<path transform="translate(527,277)" d="m0 0 3 1v2h4l1-3 2 1-1 4-4 4h-6v2l-13 3h-17l-1-1h-6l-5-2 2-4-3-1v-2l6 3v2l7-1 1 2h3l1-2 9-3 3-3 8 1h3 2z" fill="#3E8E60"/>
<path transform="translate(223,473)" d="m0 0h3l1 39 3 10-1 4-3 1-4-1-9 1-1 2v-2h-2l-4-10v-5l3 4 4-2h4l1-3 7 1-1-3v-33z" fill="#F6FBF5"/>
<path transform="translate(572,379)" d="m0 0 10 1 12 5 16 8 11 7v2l6 2 5 4 5 1 6 3v2l10 4 4 8 1 5 5 6v2h2l4 6 3 3h-3l-9-11-6-7v-2l-4-2-6-7-14-10-11-7-5-4-9-3-16-8-17-7z" fill="#EFF6EF"/>
<path transform="translate(740,606)" d="m0 0h19l1 2-3 2 1 2-3 3-1-1-5 2-4 2-2 2-2-1-2 1 1 3 3 1-1 2h-10v-2l-3 1 3-12 4-6z" fill="#57A776"/>
<path transform="translate(574,534)" d="m0 0v3l-12 13-9 9-3 6h-2l1 7-2 2h-3l-1 2-1-1-3 6-3 1-5-2v2h-5v-3h-10l-1-1v-10h2l1-2-1 10 14-2 11-9 14-12 12-12z" fill="#D1E2D6"/>
<path transform="translate(434,769)" d="m0 0 11 2 17 4 25 3 21 1 21-2 16-2 17-4 8-1-3 3-11 2-1 1-13 2-10 2-12 1-3 1h-31l-3-1-19-2-8-2-7-2-5-2h-4v-2l-6-1z" fill="#1F6040"/>
<path transform="translate(663,401)" d="m0 0 4 2 10 9 4 3 2 4 8 9v2h2l14 19 9 14 7 15 2 4h17l14-1h22l11 3 2 2-1 3-5-4-13-1-47 1-4-4-6-14-9-15v-2h-2l-10-14-8-10-2-4-4-2-3-5-8-8-6-5z" fill="#8BB79C"/>
<path transform="translate(626,318)" d="m0 0 3 1-11 6-3 2v5l3 5-5 5-3 1h-12l-9 10-5 2-7-1v-1l7-2 10-10 8-7 5-4 4-3h2v-2l11-6z" fill="#F5FAF4"/>
<path transform="translate(393,400)" d="m0 0h2v2l-14 7-13 10-13 13h-3l-1 4-5 6h-2l-2 4-7 9-5 7v-3-5l3-5h2l2-4 3-1 4-8 8-7 16-15 11-9 4-2 8-2z" fill="#C7DCCD"/>
<path transform="translate(442,588)" d="m0 0 4 1 10 5-3 2 7 6 9 5 7 7 7 3 7 2 1-2v4l-5 1-7-2-9-4-8-4-6-7v-2l-5-1-4-4-1-5h-2v-3l-3-1z" fill="#1E6641"/>
<path transform="translate(422,739)" d="m0 0h7l11 4 14 4 11 1 3 1 11 1 5 1 12 1 3 3-19 1-10-2h-8l-3-2h-5v-2h-8v-2h-8l-4-2v-2l-10-3z" fill="#E8F1E9"/>
<path transform="translate(211,469)" d="m0 0h11l6 4 2 3v20l-1 7 1 5v7l-2-1-1-3-1-38-5-1h-9l-5 2-2 5-1 3v28l5 19-2 1-1-6h-2l-3-10v-33l5-9z" fill="#7AAB8E"/>
<path transform="translate(455,165)" d="m0 0 2 1-4 2-2 4-5 5-5 3-8 10-8 16-4 13-1 6v19l5 18 5 11 6 10 11 12 3 4-4-2-5-5-8-9-8-14-5-13-3-15v-14l3-14 5-13 8-14 9-10 7-7z" fill="#1D5C3E"/>
<path transform="translate(235,540)" d="m0 0 9 2 1 1 7 1v2l-5 3 2 10 1 2-7 1-6-3 2-1-3-3-4-2 1-2-2-1-1-6 3-3 1 1z" fill="#79C290"/>
<path transform="translate(490,724)" d="m0 0h1l1 13 1 1v12h-12l-10-2v-2h-11l1-3h13l2-4 4-1 5 1 1 4 1-4 2-3v-9z" fill="#1E6641"/>
<path transform="translate(270,559)" d="m0 0 2 3 2 16v5l-2-1-1-7-3-2-15-1-16-7v-2l-3-1v-2h4v2l10 2h16l6-1z" fill="#195A3B"/>
<path transform="translate(671,375)" d="m0 0h2v27l3 2h8l-1 5 1 3-4 4-8-8 2-1-4-5 1-18-3 1-2-1h-14l-2 1-4-3 6-3 15-2z" fill="#1E6641"/>
<path transform="translate(515,599)" d="m0 0 1 2v129l-1 21 16-1v1l-5 1h-12l-1-16 1-37v-99z" fill="#8DB89D"/>
<path transform="translate(696,385)" d="m0 0h1l-1 8-8 14-4 5-2-4 2-4-9 1-3-3v-6l12-2 3-1v3l5-3z" fill="#38865A"/>
<path transform="translate(433,512)" d="m0 0 5 2h5l3 2h2v2l4 1v2l10 1h3l2 5 7 2v4h5l4 5v5h-3l-6-8-6-3v-2l-5-2-9-5-12-4-12-1v-2l-3 1 1-4h2v2h2z" fill="#EFF6EF"/>
<path transform="translate(490,203)" d="m0 0m-1 1m-2 1h2v2h-2l-1 3-8 7-8 8-4 13 1 20 3 7v4h-3l-4-7v-26l4-12 5-8 5-4h2l2-4z" fill="#58A977"/>
<path transform="translate(378,776)" d="m0 0 5 1 3 3 4 9v6l1 4-4 1-8-6-3-10 1-7z" fill="#1D6440"/>
<path transform="translate(553,275)" d="m0 0 1 2-6 7h-2v2l-16 8-6 2-16 2h-13l-15-3-5-3-7-3-5-4v-2l4 2 17 8 4 1 9 1h10l17-2 9-4 11-6 3-1 1-3z" fill="#84BC97"/>
<path transform="translate(296,656)" d="m0 0 4 2 8 12v3h2v3h2l6 8 5 6 6 7 7 5 3 1v3l1 3 3 1h-2l1 3-4-1-7-9-7-6-11-14v-2h-2l-1-4h-2l-6-9v-3h-2l-1-4h-2z" fill="#85B396"/>
<path transform="translate(491,368)" d="m0 0h33l20 3 12 2 9 3v1l-8-1-34-5-10-1h-17l-32 4-17 4-8 3h-5l4-2 10-4 15-3 18-3z" fill="#8DB89D"/>
<path transform="translate(495,180)" d="m0 0h21l13 4 3 3v2l-8-1-3 1-5-1-5 1h-7l-12 3-4-2 4-3 11-2h19v-2l-7-1h-19l-9 1 4-2z" fill="#195D3C"/>
<path transform="translate(704,309)" d="m0 0 2 2v15l-2 12v5l-2 6-4-2-1-7h-2l-2-5-1 1h-11l2-1v-2l-3-2h23l1-9z" fill="#E5EEE6"/>
<path transform="translate(680,301)" d="m0 0h15l9 3 3 4v36l-2 1v-34l-3-5-5-2h-20l-16 3-25 9-7 2 3-3 10-4h4v-2l9-3 14-4z" fill="#79AB8D"/>
<path transform="translate(277,571)" d="m0 0 6 1 5 1 5-2v4l4-1-1 4 3 7-1 7-4-2-3-6h-3v-3l-7-1v-3h-2l-2-3z" fill="#EAF2EB"/>
<path transform="translate(416,492)" d="m0 0h11l18 1 5 2v1l-22-1h-14l-6 3-1 6-1 12v10l2 16 4 6 3 10 2 4h2l-1 2-5-5-7-15-2-13v-25l2-10 5-3z" fill="#E6EFE7"/>
<path transform="translate(410,491)" d="m0 0h33l7 3-3 1-7-1-15-1h-9l-8 2-2 5-1 6v25l2 15h-2l-2-6v-7l-2-9v-20l4-10z" fill="#8DB89D"/>
<path transform="translate(492,149)" d="m0 0h25l16 4 14 7 1 2-8-2-7-3v-2l-14-3-17-1-16 2-18 6v2l-8 4-3-1 9-6 13-6z" fill="#175238"/>
<path transform="translate(496,181)" d="m0 0h19l7 2v2l-4 1h-18l-9 3-4 1-5-3 1-3z" fill="#083827"/>
<path transform="translate(667,446)" d="m0 0 5 3 4 6v2h2l4 7v2h2l1 5h2l9 19-1 2-3-5v-3h-2l-1 4-4-4-2-7h-2l1-4-3 1v-3h2l-1-6-2-2-2-1 1-3h-2l-4-7v-2l-4-2z" fill="#61A37B"/>
<path transform="translate(353,394)" d="m0 0 2 1-11 10-8 7-9 9-9 11-11 15-11 19-4 8-2-2 7-14 9-14 7-10h2l1-4 4-4 7-8 14-14h2v-2z" fill="#7DAD90"/>
<path transform="translate(434,351)" d="m0 0h6l-4 2-18 6-16 7-15 8-17 11h-2l-2 5-8 3h-3l6-5 15-10 7-5 6-3 15-8 19-8z" fill="#85B397"/>
<path transform="translate(274,590)" d="m0 0 1 4h2l4 20 5 15 5 12 4 8-1 3-3-3v-3h-2l-5-13-4-10-4-16-1-1-1-7z" fill="#5C9474"/>
<path transform="translate(597,731)" d="m0 0m-2 1h2l1 5-10 4-6 3-5 2-15 3-3 1-1-4 12-3 20-8z" fill="#EAF2EA"/>
<path transform="translate(674,377)" d="m0 0h1l1 8-1 4 2 1 1-2 8-1h5l2 2-1 6-5 1v-3l-7 3h-7v-9z" fill="#5BAA79"/>
<path transform="translate(594,731)" d="m0 0 3 1-12 6-15 6-6 2h-6l1 3-10 3-9 2-2-2 2-1-7-1v-1l29-5 17-6 14-6z" fill="#B2CFBC"/>
<path transform="translate(467,601)" d="m0 0h25l-1 10-6 1-5-3-4-4-9-3z" fill="#083727"/>
<path transform="translate(663,401)" d="m0 0 4 2 10 9 4 3 2 4 8 9v2h2l14 19 9 14 2 6h-2l-10-17v-2h-2l-10-14-8-10-2-4-4-2-3-5-8-8-6-5z" fill="#7FAE91"/>
<path transform="translate(652,388)" d="m0 0 11 2 7 5 1 7 3 3v2l-4-1-7-5v-2l-4-2v-2l-4-2-3-2z" fill="#0A3C2A"/>
<path transform="translate(574,534)" d="m0 0v3l-12 13-9 9-3 6h-2l1 7-2 2h-3l-1 2-1-1-1 2h-2l-2-4 10-10 3-5 10-9 8-8z" fill="#F4FAF3"/>
<path transform="translate(573,492)" d="m0 0h16l11 3 4 2 2 9-2 4-1-10-6-1-3-2v-2l-17-1-15 2-15 4-3 3-8 2 3-3 10-5 17-4z" fill="#E6EFE7"/>
<path transform="translate(734,583)" d="m0 0h1v8l-2 5-6-1-4 3-2 1-1-2-3 1h-4-3l-2 6-1-3 2-10 2-1 4 4 1-3 4-1 1 2 7-2 5-1z" fill="#90B99F"/>
<path transform="translate(629,349)" d="m0 0 4 1-4 1v6h-4l-2 4-2 6 1 2-10-2v-4l2-3h3l2-4 3-3 5-2z" fill="#1B5E3D"/>
<path transform="translate(393,400)" d="m0 0h2v2l-14 7-13 10-13 13h-2v-2l2-1 3-5 13-13 8-6 4-2 8-2z" fill="#BFD7C7"/>
<path transform="translate(330,456)" d="m0 0 1 3-7 10-4 8-4 10-5 10-3 10-3 2 1-8 6-13 5-11 4-10 8-10z" fill="#E6EFE7"/>
<path transform="translate(577,517)" d="m0 0 3 1v6l-3 10-5 3-3 2-1-4 1-5-1-5 2-3h5l2 2 2-5h-7v-1z" fill="#286F4A"/>
<path transform="translate(793,560)" d="m0 0h1v54l-2 6h-2v-12z" fill="#277149"/>
<path transform="translate(571,289)" d="m0 0v3l-7 8-5 4-5 2-7 4-9 3-1-2 3-2h3v-2h2v-2h4l3-3 6-3 3-4 4-1z" fill="#348156"/>
<path transform="translate(585,203)" d="m0 0 2 2 4 13 1 17-3 21-6 18-2 1 1-7 6-21 1-7v-18l-4-16z" fill="#236343"/>
<path transform="translate(294,471)" d="m0 0 2 1 1 11 1 2h-2l-2 9-2 2h-3v-2l-2-1 1-9h2l1-2h1v-6z" fill="#FCFCFC"/>
<path transform="translate(676,363)" d="m0 0h1l1 10 4-1 5 6-3 3 2 1-6 3h-4l-1-3v-18z" fill="#88BA99"/>
<path transform="translate(538,280)" d="m0 0 2 1-9 7-8 3-11 2h-16l-15-4-7-4 3-1 6 3 6 2h7v2l17-1 7-2h6v-2l6-1 4-4z" fill="#88B99A"/>
<path transform="translate(566,770)" d="m0 0 4 1-3 2-11 2-1 1-13 2-10 2-14 1-10-1v-1l21-2 16-2 17-4z" fill="#256B47"/>
<path transform="translate(572,379)" d="m0 0 10 1 12 5 16 8 7 5h-3l-9-3-16-8-17-7z" fill="#CADED0"/>
<path transform="translate(739,509)" d="m0 0h24l-3 1v2l-11 3-1 2v12l-2 4-1-1-1-15 2-6-7-1z" fill="#185A3B"/>
<path transform="translate(607,365)" d="m0 0 11 5 3 3 7 3 1 3-5 2v-2h2v-2h-16l-3-9z" fill="#F4FAF3"/>
<path transform="translate(772,592)" d="m0 0h7l4 1h3l4 2v2l-1 5-4-2-11-1-3-1v-5z" fill="#58A977"/>
<path transform="translate(449,378)" d="m0 0 3 1-5 3-3 3-10 4h-10l2-3h3v-2h3v-2l9-2z" fill="#0A3B29"/>
<path transform="translate(418,239)" d="m0 0h1l4 17 6 16 7 11 11 12 3 4-4-2-5-5-8-9-8-14-5-13-2-9z" fill="#195339"/>
<path transform="translate(457,165)" d="m0 0 2 1-17 17-1 2h-2l-1 3h-2l-1 4h-2l-1 4h-2l-2 9-1 4h-3l1-5 7-14 9-11 8-6 4-5z" fill="#CBDFD1"/>
<path transform="translate(328,462)" d="m0 0v3l-7 14-7 16-4 10-4 16-2 11-2-3 4-20 5-14 7-14 3-8 6-10z" fill="#8DB89D"/>
<path transform="translate(445,371)" d="m0 0 13 2v1l-10 2-10 4h-4v2l-11 4-2-1 2-3 10-3 7-7z" fill="#F2F8F1"/>
<path transform="translate(697,304)" d="m0 0 5 1 2 2 1 5v10l-2 9-8 1-13-1 2-2 2 1v-2l10-2 6 1 1-14-2-6z" fill="#F4F9F3"/>
<path transform="translate(502,150)" d="m0 0 17 1 12 3 2 2-9-1-6-1h-25l-14 1 3-2 8-2z" fill="#B4D0BD"/>
<path transform="translate(727,626)" d="m0 0 17 1h37v2l-7 1h-26l-23-1z" fill="#134A32"/>
<path transform="translate(482,187)" d="m0 0 5 2 1 3-5 2-6 5-5 4-1 2-4 1 1-5 10-10 4-2z" fill="#165839"/>
<path transform="translate(726,524)" d="m0 0 3 1h3l-1 12 1 5v4h-2l1 8h-3l-1-6-1-2v-8l2-6v-3l-3-2z" fill="#F5FAF4"/>
<path transform="translate(305,509)" d="m0 0 2 1-4 20v11l-1 17h-1l-1-11v-13l1-10-1-5 4-9z" fill="#C8DCCE"/>
<path transform="translate(451,495)" d="m0 0 10 3 15 8 12 9 5 7-1 2-1-3-3-1v-2l-4-1-2-1v-2h-2l-4-5-9-5-5-1-5-4-6-2z" fill="#E6EFE7"/>
<path transform="translate(626,318)" d="m0 0 3 1-11 6-12 9-11 10-6 5-3 5-5 1-4-2 7-2 10-10 8-7 5-4 4-3h2v-2l11-6z" fill="#85B296"/>
<path transform="translate(226,474)" d="m0 0 4 2v20l-1 7 1 5v7l-2-1-1-3z" fill="#558C6E"/>
<path transform="translate(490,724)" d="m0 0h1l1 13 1 1v12h-12l2-2 5-1-2-7 3-4v-9z" fill="#206842"/>
<path transform="translate(245,544)" d="m0 0h7v2l-5 3 2 10 1 2-7 1-6-3 3-1v-2l3-2 1-9z" fill="#58A977"/>
<path transform="translate(422,739)" d="m0 0h7l11 4 14 4v2l-8 1v-2h-8l-4-2v-2l-10-3z" fill="#E6EFE7"/>
<path transform="translate(670,398)" d="m0 0 4 5 5 1h5l-1 5 1 3-4 4-8-8 2-1-4-5z" fill="#175839"/>
<path transform="translate(607,389)" d="m0 0 7 1 2 2 2 4 2-1v2l3 1v2h5v4l4-1 2 6-4-2-9-5-3-3-8-5-4-2z" fill="#F6FBF5"/>
<path transform="translate(535,312)" d="m0 0h2v2h-3v2l-21 4-11 1-18-2v-2l13 1 25-2 9-2z" fill="#2C784E"/>
<path transform="translate(522,341)" d="m0 0 21 3 20 4 11 3 3 2-8-1-25-5-12-2-14-1v-2z" fill="#87B398"/>
<path transform="translate(234,560)" d="m0 0h4v2h3v2l6 1 2 1v2l8 1 9 1 2 2h-15l-16-7v-2l-3-1z" fill="#10412F"/>
<path transform="translate(299,545)" d="m0 0 2 2v19l-3-4-1 4-5-2-1-3 1-5 4 3v-5l1-2h2z" fill="#E6EFE7"/>
<path transform="translate(559,217)" d="m0 0 2 2 2 14-1 15-4 13-1 2h-2l3-9 1-6z" fill="#86BB99"/>
<path transform="translate(304,472)" d="m0 0 8 3v5l-2 2h-3v2l-3 1-2-1-1-6 2-5z" fill="#FCFCFC"/>
<path transform="translate(406,732)" d="m0 0 8 4h3l1-2 8 4-2 2 10 4-3 1-6-1-9-4-12-5 2-1z" fill="#E1ECE3"/>
<path transform="translate(451,300)" d="m0 0 7 4 9 6 12 5v2l4 1-1 2-11-4-12-7-8-7z" fill="#195439"/>
<path transform="translate(431,519)" d="m0 0h7l-1 3h-2l2 7 3 2v3l3 1-1 3-6-4-5-8-1-5z" fill="#185A3A"/>
<path transform="translate(485,566)" d="m0 0h5l2 3v8l-6-1-6-2 3-6z" fill="#0B3D2A"/>
<path transform="translate(274,532)" d="m0 0h1v10l-1 4v19l2 23v6l-2-4-1-7-1-15-1-24z" fill="#8AB69B"/>
<path transform="translate(539,373)" d="m0 0 11 1 6 2-1 3-16 1-11-1v-3h18l-7-2z" fill="#195C3C"/>
<path transform="translate(295,574)" d="m0 0h2l-1 4 3 7-1 7-4-2-2-5-1-7-1-2z" fill="#F5FAF4"/>
<path transform="translate(390,369)" d="m0 0 2 2-21 13-3 1-2 5-8 3h-3l6-5 15-10 7-5 6-3z" fill="#89B59A"/>
<path transform="translate(273,546)" d="m0 0 2 2 2 5v13l-1 8v9h-1l-2-18z" fill="#E6EFE7"/>
<path transform="translate(518,521)" d="m0 0 1 3-2 4-1 4-2 2h-3l-2 5-1 1h-6l-2-5-3-1-1-5h-2l1-4 9 13h4l2-5 6-9z" fill="#E6EFE7"/>
<path transform="translate(540,518)" d="m0 0 7 1v2h2v2h-2l-1 3-7 1-2-1v-6z" fill="#FCFCFC"/>
<path transform="translate(274,590)" d="m0 0 1 4h2l4 20 2 6-1 4-3-6-2-5-3-14z" fill="#5B9173"/>
<path transform="translate(496,369)" d="m0 0h17l25 3v1l-12 1-19-3h-20v-1z" fill="#256E47"/>
<path transform="translate(463,283)" d="m0 0 4 2 17 8 4 1 9 1 2 2-4 1-15-3-5-3-7-3-5-4z" fill="#8DB89D"/>
<path transform="translate(735,535)" d="m0 0h1l1 12v30l-1 6h-1l-1-9 1-4v-16l-1-18z" fill="#89B69A"/>
<path transform="translate(697,350)" d="m0 0 3 4 1 9-2 6-1-2-2-1-2-3 1-2-1-7z" fill="#E1ECE3"/>
<path transform="translate(740,602)" d="m0 0h15l9 2 3 5 1 2h-3l-2-3-16-3-7-2z" fill="#77B98E"/>
<path transform="translate(353,394)" d="m0 0 2 1-11 10-8 7-9 9-6 7-2-1 9-10 13-13h2v-2z" fill="#8DB89D"/>
<path transform="translate(695,676)" d="m0 0 2 2h-2v2l4-3-1 4-7 9-2-3v2h-2v2h-2l2-7h2v-2l3-2z" fill="#71B888"/>
<path transform="translate(296,656)" d="m0 0 4 2 8 12v3h2v3h2l2 5h-3l-1-4h-2l-6-9v-3h-2l-1-4h-2z" fill="#73A688"/>
<path transform="translate(540,749)" d="m0 0m-9 1h9l2 2-11 4h-3v-2l-22 1v-1l6-1 16-1z" fill="#EFF6EF"/>
<path transform="translate(701,503)" d="m0 0 2 2 4 19 1 2v23h-1l-3-27-3-15z" fill="#E6EFE7"/>
<path transform="translate(433,512)" d="m0 0 5 2h5l3 2h2v2l4 1-1 2-8-3h-13v-2l-3 1 1-4h2v2h2z" fill="#F4FAF4"/>
<path transform="translate(553,497)" d="m0 0h5l-3 3-1 3-5-1-4 3-6 2-2 3-3-1 4-5 6-1 1-3z" fill="#F6FBF5"/>
<path transform="translate(562,172)" d="m0 0 7 6 8 8 8 14-1 3-4-8-4-4-2-5-10-9-2-2z" fill="#3A7857"/>
<path transform="translate(455,165)" d="m0 0 2 1-4 2-2 4-5 5-5 3-8 10-1 2-2-1 6-9 13-13z" fill="#1B593C"/>
<path transform="translate(378,410)" d="m0 0 2 1-1 2-5 3-6 5-5 6-5 4-5 5h-3l2-4 5-3 13-13z" fill="#206642"/>
<path transform="translate(340,443)" d="m0 0 1 4-8 11-4 4 1-8 3-5h2l2-4z" fill="#BFD7C6"/>
<path transform="translate(454,236)" d="m0 0h1v7l-1 8 1 11-4-4-2-7 2-1v-8z" fill="#1E6641"/>
<path transform="translate(505,779)" d="m0 0 13 1-1 2h-31v-2z" fill="#1B563B"/>
<path transform="translate(689,476)" d="m0 0 2 1v2l4 2 1 3 2 1 1 7 2 7-1 4-5-13-6-12z" fill="#E6EFE7"/>
<path transform="translate(294,651)" d="m0 0h7l2 1v2h2l-1 2 1 1-4 4-4-4-3-2z" fill="#A4C5B0"/>
<path transform="translate(572,516)" d="m0 0h8l3 2v8l-1 3-5 5 2-10v-6h-9z" fill="#BAD4C3"/>
<path transform="translate(287,484)" d="m0 0h1v17l-2 1-2-1-1 4-2 2 1-7 4-13z" fill="#F1F6F1"/>
<path transform="translate(700,303)" d="m0 0 5 2 2 3v36l-2 1v-34l-3-5-2-1z" fill="#558A6E"/>
<path transform="translate(735,605)" d="m0 0h11l-2 2-8 1-4 8-3 8-2 1 2-10 4-8z" fill="#79C390"/>
<path transform="translate(774,588)" d="m0 0 1 2 6-1 5 1 3-1 1 4-4 1h-3l-10-1h-2v-3h3z" fill="#76C18E"/>
<path transform="translate(521,150)" d="m0 0 12 3 14 7 1 2-8-2-7-3v-2l-14-3z" fill="#1B553B"/>
<path transform="translate(608,331)" d="m0 0 2 1-7 7-6 5-7 8-4 2 2-5 10-9z" fill="#EDF4EE"/>
<path transform="translate(201,500)" d="m0 0h1l1 9 3 9 3 12h-2l-1-6h-2l-3-10z" fill="#488263"/>
<path transform="translate(483,318)" d="m0 0 20 2h10v2h-22l-8-2z" fill="#0C3C2B"/>
<path transform="translate(304,664)" d="m0 0h3l3 7 4 3 1 1 3 4 2 6-4-2-4-5v-2h-2v-3h-2l-4-7z" fill="#DCE9DF"/>
<path transform="translate(659,335)" d="m0 0h7l-1 4-3 2h-10l-1-2z" fill="#165739"/>
<path transform="translate(669,430)" d="m0 0 1 4h2l1 5-5 2-4-3 2-6z" fill="#FCFCFC"/>
<path transform="translate(410,389)" d="m0 0h4l-1 3-8 5-1 1h-5v2l-4-1 6-4h2v-2z" fill="#3C7F5B"/>
<path transform="translate(783,562)" d="m0 0h7l-1 4-4 1h-3l-10 1 1-2h2l1-3v2z" fill="#90BA9F"/>
<path transform="translate(717,469)" d="m0 0h2l6 13 17 1v1l-17 1-4-4-4-10z" fill="#8AB69B"/>
<path transform="translate(600,392)" d="m0 0 9 4 6 4v2h-4v-2l-4-1-7-3z" fill="#236D46"/>
<path transform="translate(289,473)" d="m0 0h2l-1 6-7 19-3 4 1-7 5-14z" fill="#6EA384"/>
<path transform="translate(602,727)" d="m0 0 4 1v5l-7 3-2-4 1-3z" fill="#D6E5D9"/>
<path transform="translate(574,534)" d="m0 0v3l-12 13-10 10-3-1 12-11 7-7z" fill="#8DB89D"/>
<path transform="translate(508,527)" d="m0 0 3 1-1 4-3 5-4-2-2-6h5z" fill="#409162"/>
<path transform="translate(572,379)" d="m0 0 10 1 9 4 5 5-5-1-19-8z" fill="#A9C9B4"/>
<path transform="translate(223,550)" d="m0 0 4 2 9 6 9 4-4 1-3-1v-2l-5 1-7-6v-2l-3-1z" fill="#317952"/>
<path transform="translate(555,521)" d="m0 0 3 1-10 5h-2v2l-5 3-5 4-3 3 2-5 11-9 1-2z" fill="#A1C4AD"/>
<path transform="translate(316,619)" d="m0 0 2 4v5h2v5h2v5l-4-4-4-9v-3h2z" fill="#1B5F3E"/>
<path transform="translate(284,501)" d="m0 0h5v5l-2 1v-4h-2v6l-2 5h-2l-1 3 1-10z" fill="#FCFCFB"/>
<path transform="translate(484,751)" d="m0 0 12 1 3 3h-11l-10-2v-1z" fill="#F1F7F1"/>
<path transform="translate(342,674)" d="m0 0 18 18v2l3 1-1 2-8-7-7-8-5-6z" fill="#8DB89D"/>
<path transform="translate(700,609)" d="m0 0h1v6l-5 11-3 7-4 8-1-3 7-15 1-4h2l1-6z" fill="#86B898"/>
<path transform="translate(663,401)" d="m0 0 4 2 10 9 4 3 4 8-5-3-3-5-8-8-6-5z" fill="#7EAD90"/>
<path transform="translate(664,332)" d="m0 0h14v4l-1-3h-5v3l-13-1 2-2z" fill="#3C7C5A"/>
<path transform="translate(538,280)" d="m0 0 2 1-9 7-8 3-6-1 3-2h6v-2l6-1 4-4z" fill="#76B98D"/>
<path transform="translate(494,179)" d="m0 0 1 2-10 3-11 6-2-1 3-4h3v-2l5-2z" fill="#B1CEBB"/>
<path transform="translate(546,527)" d="m0 0 8 1 1 4-6 2-7-1z" fill="#083727"/>
<path transform="translate(726,524)" d="m0 0 3 1h3l-1 12-4-1 1-7-3-2z" fill="#F4F9F3"/>
<path transform="translate(564,253)" d="m0 0 1 4v7l-3 1v2h-2l-2 6-3-1 6-11z" fill="#8DB89D"/>
<path transform="translate(502,176)" d="m0 0 22 3 4 3-11-2-13-1-9 1-1-2z" fill="#E6EFE7"/>
<path transform="translate(469,568)" d="m0 0 9 6 6 2 8 1v1h-10l-4-2v2h-3l-3-4 1-2-4-2z" fill="#A9C9B4"/>
<path transform="translate(305,449)" d="m0 0 1 2-3 9-2 4-5 2 2-6z" fill="#F0F6F0"/>
<path transform="translate(534,315)" d="m0 0 1 2-10 3-12 2 1-3z" fill="#164834"/>
<path transform="translate(552,260)" d="m0 0 2 1-2 7-3 4h-3v-2l-3-1 4-1 2-4z" fill="#3E8E60"/>
<path transform="translate(455,202)" d="m0 0 3 1-8 15-1 5h-2l1-9 3-6 2-1z" fill="#ADCBB7"/>
<path transform="translate(391,404)" d="m0 0 2 1-5 4-3 3h-2l-4 1 2-5 3-2z" fill="#0E422E"/>
<path transform="translate(457,347)" d="m0 0h6l-3 2-7 2v1l-17 1 4-2z" fill="#EBF2EB"/>
<path transform="translate(487,742)" d="m0 0 6 2v6h-12l2-2 5-1z" fill="#368558"/>
<path transform="translate(791,487)" d="m0 0 3 3v19h-2l-1-17-1-3z" fill="#7BAD8E"/>
<path transform="translate(535,312)" d="m0 0h2v2h-3v2l-14 3h-6l-2-2 13-2 7-2z" fill="#378659"/>
<path transform="translate(451,300)" d="m0 0 7 4 9 6 4 3-9-2-11-9z" fill="#256A46"/>
<path transform="translate(433,189)" d="m0 0 1 2-2 5h-2l-2 9-1 4h-3l1-5 7-14z" fill="#B3D0BD"/>
<path transform="translate(270,559)" d="m0 0 2 3v2h-3v3h-15l-2-2 12-1 6-1z" fill="#1D6540"/>
<path transform="translate(409,550)" d="m0 0 3 4 3 6 1 3h2l4 6-1 2-6-7v-2h-2l-5-10z" fill="#89BA9A"/>
<path transform="translate(727,626)" d="m0 0 17 1 1 2h-20z" fill="#1F6742"/>
<path transform="translate(792,601)" d="m0 0h1l1 13-2 6h-2v-11l1-1z" fill="#19573A"/>
<path transform="translate(478,523)" d="m0 0h3l1 7-4 1-3-2 1-5z" fill="#F6FBF5"/>
<path transform="translate(617,398)" d="m0 0 4 2v2l6 2 12 9-2 1-13-9-6-4z" fill="#E6EFE7"/>
<path transform="translate(436,378)" d="m0 0 3 1-5 1v2l-11 4-2-1 2-3z" fill="#C2D9C9"/>
<path transform="translate(507,295)" d="m0 0h8v2l-8 1h-11l3-2z" fill="#81BE95"/>
<path transform="translate(566,770)" d="m0 0 4 1-3 2-11 2-1 1h-5l2-3 13-2z" fill="#226944"/>
<path transform="translate(295,466)" d="m0 0 1 3-3 7v7l-5 1 3-10z" fill="#ECF4EC"/>
<path transform="translate(469,190)" d="m0 0 3 1-6 4-3 1v2h-2l-2 4-1-4 6-6z" fill="#B0CDBA"/>
<path transform="translate(565,744)" d="m0 0 10 1v1l-8 2-5 1-3 1-1-4z" fill="#E6EFE7"/>
<path transform="translate(393,400)" d="m0 0h2v2l-14 7-4 3-2-1 5-5z" fill="#88B599"/>
<path transform="translate(452,346)" d="m0 0h6l-1 2-13 3h-8v-1l10-2z" fill="#69A080"/>
<path transform="translate(705,326)" d="m0 0h1v10l-1 11-3-1v-5l1-3z" fill="#8DB89D"/>
<path transform="translate(548,162)" d="m0 0 5 2 9 7-4 1-9-7z" fill="#589171"/>
<path transform="translate(523,165)" d="m0 0h5l2 3-1 5-5-3z" fill="#F6FBF5"/>
<path transform="translate(654,716)" d="m0 0 5 5-4 2-1 3h-2v-2l1-1-1-3v-3z" fill="#7CBF92"/>
<path transform="translate(350,692)" d="m0 0 4 2-2 1v4l2 1-3 1v3l-6-2 2-3h3z" fill="#A6C7B2"/>
<path transform="translate(277,571)" d="m0 0 6 1 1 3-1 5-2-1v-2h-2l-2-3z" fill="#E7F0E8"/>
<path transform="translate(545,305)" d="m0 0h2l1 4-5 3-5 1-1-2 3-2h3v-2h2z" fill="#39885B"/>
<path transform="translate(422,739)" d="m0 0h7l9 5-4 1-12-5z" fill="#F3F8F2"/>
<path transform="translate(730,512)" d="m0 0h1l2 11v6l-3-4h-3v-3l3-1z" fill="#E6EFE7"/>
<path transform="translate(223,473)" d="m0 0h3v17l-2-1v-13z" fill="#F1F7F0"/>
<path transform="translate(571,289)" d="m0 0v3l-7 8-2-2 7-8z" fill="#1B5F3E"/>
<path transform="translate(463,283)" d="m0 0 14 7v2l-7-2-7-5z" fill="#8BB89B"/>
<path transform="translate(695,676)" d="m0 0 2 2h-2v2l4-3-1 4-4 6-2-4 1-4z" fill="#6AA982"/>
<path transform="translate(468,528)" d="m0 0h5l1 5h2l-1 3-7-4z" fill="#F1F7F0"/>
<path transform="translate(566,379)" d="m0 0 11 3 4 3-4 1-7-3-7-2z" fill="#165839"/>
<path transform="translate(436,284)" d="m0 0 14 14h-3l-5-4-7-8z" fill="#357D55"/>
<path transform="translate(483,281)" d="m0 0 4 2 3 3 3 4-6-1-3-2 2-3-3-1z" fill="#439364"/>
<path transform="translate(454,748)" d="m0 0h9v2l3 1h-7l-5 1v-2l-3-1z" fill="#EDF4ED"/>
<path transform="translate(322,640)" d="m0 0h2l2 4v4h3l-1 3-4-2-2-4z" fill="#1A5E3D"/>
<path transform="translate(429,522)" d="m0 0 2 1 5 10 3 3-1 2-7-6z" fill="#A6C7B1"/>
<path transform="translate(585,258)" d="m0 0h1v8l-4 9h-1l1-7z" fill="#226643"/>
<path transform="translate(546,166)" d="m0 0 4 2v5l-6-2v-4z" fill="#F6FBF5"/>
<path transform="translate(328,650)" d="m0 0 3 3 1 6v2l3 1-2 1-4-4-3-8z" fill="#428560"/>
<path transform="translate(620,353)" d="m0 0 2 1-5 6-3 1-2 5-2 1 1-6 3-4 5-3z" fill="#A7C8B2"/>
<path transform="translate(589,246)" d="m0 0h1l-1 10-2 6h-1v-7z" fill="#165237"/>
<path transform="translate(289,641)" d="m0 0h2l4 8-1 3-3-3v-3h-2l-1-4z" fill="#75A989"/>
<path transform="translate(784,589)" d="m0 0h3 2l1 4-4 1h-3l-2-1 1-3z" fill="#75C08D"/>
<path transform="translate(456,557)" d="m0 0 6 4 5 4-1 2-6-3-4-5z" fill="#B0CEBA"/>
<path transform="translate(428,383)" d="m0 0 4 1h-3v2l-5 3-4 1 1-4z" fill="#1B5B3C"/>
<path transform="translate(579,276)" d="m0 0 2 1-7 11-1-4 1-2h2l1-5z" fill="#1E5F3F"/>
<path transform="translate(562,172)" d="m0 0 7 6 3 3-1 3-9-9z" fill="#5C9474"/>
<path transform="translate(406,732)" d="m0 0 11 5v2l-6-1-7-3 2-1z" fill="#E2EDE4"/>
<path transform="translate(437,499)" d="m0 0 4 3v3h-2v2h-5z" fill="#F6FBF5"/>
<path transform="translate(542,499)" d="m0 0 2 1-11 7-3 1v2l-2-1 5-5 7-4z" fill="#8DB89D"/>
<path transform="translate(402,393)" d="m0 0 1 2-14 8-3-1 9-5z" fill="#E6EFE7"/>
<path transform="translate(449,251)" d="m0 0 4 1 2 6-1 4-3-4z" fill="#216944"/>
<path transform="translate(435,198)" d="m0 0 4 1-1 5h-4l-1-3z" fill="#F6FBF5"/>
<path transform="translate(533,156)" d="m0 0h7l8 5-2 1-13-5z" fill="#588E70"/>
<path transform="translate(740,602)" d="m0 0h15l-4 4-5-2-6-1z" fill="#6DB787"/>
<path transform="translate(492,569)" d="m0 0 3 1v8l-5 1 2-1z" fill="#C9DDCF"/>
<path transform="translate(498,529)" d="m0 0 5 3 2 4h3v2l-4 1-6-8z" fill="#7AB58F"/>
<path transform="translate(203,496)" d="m0 0h1l2 9v7l-1-2h-2z" fill="#EEF5EE"/>
<path transform="translate(366,386)" d="m0 0 2 1-2 3-8 3h-3l6-5z" fill="#B9D4C2"/>
<path transform="translate(492,285)" d="m0 0 5 1 2 3-6 1-3-2v-2z" fill="#3A8A5C"/>
<path transform="translate(423,209)" d="m0 0 1 4-2 12h-2l1-9z" fill="#ACCBB7"/>
<path transform="translate(466,158)" d="m0 0 2 1v2l-8 4-3-1z" fill="#568D6F"/>
<path transform="translate(548,774)" d="m0 0 3 1-3 2-10 2v-3z" fill="#2F7750"/>
<path transform="translate(547,561)" d="m0 0v3l-7 6-5 2 5-5z" fill="#A4C6B0"/>
<path transform="translate(548,560)" d="m0 0h4l-2 5h-2v2l-5 1 4-5z" fill="#E2ECE4"/>
<path transform="translate(455,509)" d="m0 0 4 1 4 5v3h-2l-2-4-5-2z" fill="#F6FBF5"/>
<path transform="translate(477,505)" d="m0 0 5 2 3 3-1 3-8-6z" fill="#8DB89D"/>
<path transform="translate(410,389)" d="m0 0 4 1-8 4-2 3-4-1 3-1v-2z" fill="#7FAF92"/>
<path transform="translate(676,363)" d="m0 0h1l1 10 1 3h-3-1v-12z" fill="#6CB986"/>
<path transform="translate(526,292)" d="m0 0 3 1-5 3-9 1v-2z" fill="#87BB99"/>
<path transform="translate(455,165)" d="m0 0 2 1-4 2-2 4-5 5-2-1 5-6 5-4z" fill="#5F9376"/>
<path transform="translate(484,778)" d="m0 0 20 1v1l-21 1z" fill="#2E784F"/>
<path transform="translate(405,730)" d="m0 0 12 5 1 2-5-1-8-4z" fill="#F6FBF5"/>
<path transform="translate(527,546)" d="m0 0v3l-7 11-1-3 6-9z" fill="#B2CFBC"/>
<path transform="translate(360,426)" d="m0 0 2 1-5 6-5 4-2-1 2-4 5-3z" fill="#2B734D"/>
<path transform="translate(624,389)" d="m0 0 4 1 1 1v5l-5-2z" fill="#F6FBF5"/>
<path transform="translate(470,343)" d="m0 0 5 1v1l-12 2h-5l4-3z" fill="#7DAC8F"/>
</svg>
